/* XPM */
static char * exit_xpm[] = {
"64 64 646 2",
"  	c #C0B4AE",
". 	c #BDB4AC",
"+ 	c #BEB4AD",
"@ 	c #C1B6B0",
"# 	c #BEB3AB",
"$ 	c #C0B6AE",
"% 	c #C1B6AE",
"& 	c #BCAFA8",
"* 	c #CAC0B9",
"= 	c #BEB5AF",
"- 	c #BEB4AE",
"; 	c #B7ACA8",
"> 	c #B8ADA9",
", 	c #B7AEA8",
"' 	c #B4ABA5",
") 	c #BCB2AB",
"! 	c #C7BDB8",
"~ 	c #C2B8B2",
"{ 	c #BCB1AC",
"] 	c #BEB5AE",
"^ 	c #C0B5B0",
"/ 	c #BDB2AD",
"( 	c #C1B7B0",
"_ 	c #BCB3AC",
": 	c #BAAFAA",
"< 	c #BAAFA9",
"[ 	c #B0A7A2",
"} 	c #B3A8A3",
"| 	c #BFB6B0",
"1 	c #C1B6B2",
"2 	c #C1B8B1",
"3 	c #B6ADA7",
"4 	c #C0B5AF",
"5 	c #C5BCB5",
"6 	c #B5ABA7",
"7 	c #BFB4B0",
"8 	c #B4A9A4",
"9 	c #B7ACA7",
"0 	c #BDB2AB",
"a 	c #BBB1AC",
"b 	c #C2B8B3",
"c 	c #C0B6B0",
"d 	c #AFA49F",
"e 	c #BCB3AD",
"f 	c #BFB4AE",
"g 	c #BBB2AD",
"h 	c #C0B6AF",
"i 	c #B9B1AA",
"j 	c #BAB2AD",
"k 	c #BEB5B0",
"l 	c #C5BBB6",
"m 	c #C7BCB6",
"n 	c #C5BCB6",
"o 	c #CFC6C1",
"p 	c #C9BFB7",
"q 	c #B6ABA7",
"r 	c #BBB1A9",
"s 	c #BFB4AC",
"t 	c #BCB0A9",
"u 	c #BCB2AC",
"v 	c #BFB5AE",
"w 	c #B8ADA8",
"x 	c #B5ABA5",
"y 	c #BDB4AE",
"z 	c #BFB5B0",
"A 	c #C4BAB3",
"B 	c #B4A9A5",
"C 	c #C4B8B2",
"D 	c #C3B9B3",
"E 	c #B6ACA7",
"F 	c #BBB1AA",
"G 	c #BFB4AF",
"H 	c #B8AEA9",
"I 	c #C2B8B1",
"J 	c #C6BBB5",
"K 	c #C2B9B2",
"L 	c #C8BEB7",
"M 	c #BFB5AF",
"N 	c #BDB3AC",
"O 	c #C9BEB8",
"P 	c #C2B7B3",
"Q 	c #C2B7B1",
"R 	c #C4BAB4",
"S 	c #B9AEA9",
"T 	c #BEB3B0",
"U 	c #C1B7B1",
"V 	c #C1B6AF",
"W 	c #BDB2AC",
"X 	c #BBB0AC",
"Y 	c #B5ABA6",
"Z 	c #CBC2BB",
"` 	c #C6BCB3",
" .	c #BCB3AE",
"..	c #C1B8B3",
"+.	c #C2B9B4",
"@.	c #C6BBB7",
"#.	c #C2B9B3",
"$.	c #B9B1AC",
"%.	c #BEB4AF",
"&.	c #D0C6BF",
"*.	c #C7BDB7",
"=.	c #BCB1AB",
"-.	c #B7ADA9",
";.	c #BDB4AF",
">.	c #B2A9A5",
",.	c #B3AAA4",
"'.	c #B5ABA4",
").	c #C2B8B0",
"!.	c #B7AEA9",
"~.	c #B3A9A4",
"{.	c #B2A9A4",
"].	c #BDB1AB",
"^.	c #B9AFA8",
"/.	c #B9AEA8",
"(.	c #C1B8B0",
"_.	c #BAB1AC",
":.	c #C5BAB4",
"<.	c #BDB4B0",
"[.	c #B9B0AB",
"}.	c #C6BDB6",
"|.	c #BEB6AF",
"1.	c #BBB0AA",
"2.	c #B6ACA8",
"3.	c #B9AEAA",
"4.	c #C8BFB8",
"5.	c #BFB6AF",
"6.	c #B8AFA8",
"7.	c #B5ACA8",
"8.	c #C3BAB3",
"9.	c #C4BCB4",
"0.	c #C6BDB7",
"a.	c #BDB2AE",
"b.	c #C6B9B2",
"c.	c #BAB1AB",
"d.	c #B7AFAB",
"e.	c #C2B9B5",
"f.	c #BEB3AD",
"g.	c #C4B9B4",
"h.	c #BDB4AD",
"i.	c #BEB2AC",
"j.	c #BFB3AA",
"k.	c #BCB2AA",
"l.	c #BFB4AD",
"m.	c #BDB3AE",
"n.	c #C2B8AF",
"o.	c #C6BCB5",
"p.	c #C1B6B1",
"q.	c #C4BBB4",
"r.	c #B8AEAA",
"s.	c #B9AFAA",
"t.	c #B3AAA6",
"u.	c #B3ABA7",
"v.	c #BAB0AC",
"w.	c #BDB3AD",
"x.	c #BEB3AF",
"y.	c #DBD5CF",
"z.	c #CFC7C0",
"A.	c #C0B5B1",
"B.	c #B8ADA7",
"C.	c #B1A8A2",
"D.	c #B8AFAA",
"E.	c #BCB2AD",
"F.	c #BBB0AB",
"G.	c #B1A7A3",
"H.	c #B5ACA6",
"I.	c #C8BDB5",
"J.	c #C5BBB5",
"K.	c #C3B8B4",
"L.	c #C3B8B2",
"M.	c #B5AAA4",
"N.	c #B5ACA7",
"O.	c #BCAFA9",
"P.	c #B3AAA5",
"Q.	c #B9AEA7",
"R.	c #BBB2AB",
"S.	c #BBB1AB",
"T.	c #BDB4AB",
"U.	c #C1B8B2",
"V.	c #C3B9B2",
"W.	c #BAB0A9",
"X.	c #AFA6A5",
"Y.	c #B1A7A4",
"Z.	c #BBB0A8",
"`.	c #BAB0AA",
" +	c #D6CBC8",
".+	c #D1C6C1",
"++	c #C2B8B4",
"@+	c #C5BBB3",
"#+	c #BCB2AE",
"$+	c #C7BEB8",
"%+	c #C8BEB8",
"&+	c #C0B6B1",
"*+	c #C4BBB6",
"=+	c #C0B6AD",
"-+	c #B2A9A2",
";+	c #BFB6B1",
">+	c #C2B6B0",
",+	c #BEB3AC",
"'+	c #C4BBB7",
")+	c #CAC2B9",
"!+	c #BAB0AB",
"~+	c #B7ADA8",
"{+	c #A79D9D",
"]+	c #BBB1AD",
"^+	c #B5AAA6",
"/+	c #B4ABA6",
"(+	c #BEB3AE",
"_+	c #C6BCB7",
":+	c #D0C7C0",
"<+	c #C6BEB7",
"[+	c #C9C0BA",
"}+	c #CFC5BE",
"|+	c #CBC2B9",
"1+	c #BDB5AF",
"2+	c #C5BBB4",
"3+	c #B8AFAC",
"4+	c #B9B0AD",
"5+	c #C0B7B2",
"6+	c #BAAEA8",
"7+	c #C2B7B0",
"8+	c #B8ACA8",
"9+	c #BFB3AD",
"0+	c #BDB3AF",
"a+	c #B8AFAB",
"b+	c #B9AEAB",
"c+	c #C0B7B0",
"d+	c #B7AEA7",
"e+	c #B6ACA6",
"f+	c #C3B8B3",
"g+	c #B6ABA6",
"h+	c #CCC3BC",
"i+	c #C9C0B9",
"j+	c #B2AAA8",
"k+	c #C7BCB5",
"l+	c #B1AAA4",
"m+	c #BBAFA8",
"n+	c #B5AAA5",
"o+	c #C4B9B3",
"p+	c #C4BBB5",
"q+	c #C5B9B5",
"r+	c #C0B7B1",
"s+	c #B9B0AA",
"t+	c #BCB1AD",
"u+	c #B7ADA7",
"v+	c #BCB4B0",
"w+	c #BCB4AF",
"x+	c #C7BEB7",
"y+	c #CAC0BA",
"z+	c #CCC2BC",
"A+	c #BEB4AC",
"B+	c #BAB1AD",
"C+	c #B4AAA4",
"D+	c #B8ACA6",
"E+	c #BAB3AD",
"F+	c #C3B7B1",
"G+	c #B6AEAC",
"H+	c #C7BEB9",
"I+	c #BBB2AC",
"J+	c #BCB3AF",
"K+	c #B7ADAA",
"L+	c #B4AAA6",
"M+	c #B6ABA8",
"N+	c #BCB0AB",
"O+	c #B9AFAB",
"P+	c #C6BCB6",
"Q+	c #BEB5B1",
"R+	c #C8BDB6",
"S+	c #C7BDB6",
"T+	c #BEB4B0",
"U+	c #B7ACA6",
"V+	c #B7ACA5",
"W+	c #B0A5A1",
"X+	c #C1B7B2",
"Y+	c #B7AEAA",
"Z+	c #B4ABA7",
"`+	c #BAB1AE",
" @	c #BBB0AD",
".@	c #C3B9B4",
"+@	c #C5BDB4",
"@@	c #C0B6B2",
"#@	c #CAC0B8",
"$@	c #BEB2AE",
"%@	c #C7BFB8",
"&@	c #B7ADA6",
"*@	c #BCB0AA",
"=@	c #B3A8A4",
"-@	c #B9B1AE",
";@	c #AFA6A3",
">@	c #BBB3AE",
",@	c #C8BFB9",
"'@	c #BFB7B3",
")@	c #B2A7A3",
"!@	c #574D47",
"~@	c #79746F",
"{@	c #7A7570",
"]@	c #736E69",
"^@	c #3F2E22",
"/@	c #351F09",
"(@	c #AFA7A1",
"_@	c #B6AEA9",
":@	c #78736E",
"<@	c #45372D",
"[@	c #3D2C1F",
"}@	c #3D2B1E",
"|@	c #655E58",
"1@	c #76716C",
"2@	c #3B291B",
"3@	c #B0A7A3",
"4@	c #4B3F36",
"5@	c #351F08",
"6@	c #331B00",
"7@	c #615953",
"8@	c #68615C",
"9@	c #321A00",
"0@	c #341D04",
"a@	c #B4ACA7",
"b@	c #989493",
"c@	c #423328",
"d@	c #564D46",
"e@	c #46382F",
"f@	c #341E06",
"g@	c #A09C98",
"h@	c #595049",
"i@	c #403024",
"j@	c #75706B",
"k@	c #50453D",
"l@	c #B1A9A3",
"m@	c #77726D",
"n@	c #554C45",
"o@	c #50453E",
"p@	c #574E47",
"q@	c #6E6863",
"r@	c #331B01",
"s@	c #382413",
"t@	c #736D68",
"u@	c #645C56",
"v@	c #36200C",
"w@	c #A79E9B",
"x@	c #46392F",
"y@	c #6F6964",
"z@	c #392516",
"A@	c #382412",
"B@	c #A69E9B",
"C@	c #A39B97",
"D@	c #311700",
"E@	c #311800",
"F@	c #76706B",
"G@	c #ABA4A2",
"H@	c #9D9592",
"I@	c #331A00",
"J@	c #746F6A",
"K@	c #6B645F",
"L@	c #36210D",
"M@	c #35200B",
"N@	c #5C534D",
"O@	c #392616",
"P@	c #3A2718",
"Q@	c #3E2B0A",
"R@	c #43320A",
"S@	c #AAA19C",
"T@	c #ACA39F",
"U@	c #423429",
"V@	c #67605B",
"W@	c #625A54",
"X@	c #665F5A",
"Y@	c #706B65",
"Z@	c #5E5650",
"`@	c #301609",
" #	c #776A11",
".#	c #918415",
"+#	c #A09317",
"@#	c #A49B97",
"##	c #AAA099",
"$#	c #36200B",
"%#	c #635C56",
"&#	c #746F69",
"*#	c #726D68",
"=#	c #605852",
"-#	c #362109",
";#	c #7A6D11",
">#	c #9C8F17",
",#	c #958816",
"'#	c #42300A",
")#	c #3E2C0A",
"!#	c #A89D99",
"~#	c #A79D98",
"{#	c #554B44",
"]#	c #544B43",
"^#	c #68615B",
"/#	c #51463E",
"(#	c #321B09",
"_#	c #7E7212",
":#	c #9F9217",
"<#	c #6A5C0F",
"[#	c #2F1509",
"}#	c #A79D99",
"|#	c #A49995",
"1#	c #5D544E",
"2#	c #3D2C20",
"3#	c #321900",
"4#	c #341D05",
"5#	c #958916",
"6#	c #6F6210",
"7#	c #A49B96",
"8#	c #A49993",
"9#	c #78726D",
"0#	c #6D6762",
"a#	c #483B32",
"b#	c #695C0F",
"c#	c #9A8D17",
"d#	c #2F1408",
"e#	c #A69D97",
"f#	c #B0A79E",
"g#	c #51463F",
"h#	c #79736E",
"i#	c #7A756F",
"j#	c #9F9213",
"k#	c #4C3C05",
"l#	c #A69B96",
"m#	c #A39892",
"n#	c #351E07",
"o#	c #4A3E35",
"p#	c #473A30",
"q#	c #44352B",
"r#	c #43342A",
"s#	c #6E6862",
"t#	c #9E910E",
"u#	c #78715F",
"v#	c #A49B95",
"w#	c #A49A95",
"x#	c #514740",
"y#	c #665F59",
"z#	c #4B3F37",
"A#	c #311701",
"B#	c #9E9112",
"C#	c #7E7869",
"D#	c #5F5854",
"E#	c #A79D96",
"F#	c #A69D96",
"G#	c #37220F",
"H#	c #3F2F23",
"I#	c #76716B",
"J#	c #331C09",
"K#	c #897C14",
"L#	c #9D9017",
"M#	c #9B8F24",
"N#	c #9A8D1F",
"O#	c #998C16",
"P#	c #A79C96",
"Q#	c #A59B95",
"R#	c #8D8014",
"S#	c #A19791",
"T#	c #A49A94",
"U#	c #372311",
"V#	c #756F6A",
"W#	c #625B55",
"X#	c #341E07",
"Y#	c #321B06",
"Z#	c #9E958F",
"`#	c #AA9F99",
" $	c #6B6560",
".$	c #6A645F",
"+$	c #938733",
"@$	c #A89E97",
"#$	c #A39994",
"$$	c #3A2819",
"%$	c #6C6560",
"&$	c #6D6761",
"*$	c #797470",
"=$	c #968A3B",
"-$	c #7B7110",
";$	c #000000",
">$	c #A39A94",
",$	c #9F9691",
"'$	c #382312",
")$	c #463932",
"!$	c #8F821F",
"~$	c #121001",
"{$	c #A29793",
"]$	c #8D8013",
"^$	c #665D0B",
"/$	c #A59B96",
"($	c #4D423C",
"_$	c #958939",
":$	c #6C630C",
"<$	c #020100",
"[$	c #A29693",
"}$	c #A79C97",
"|$	c #544A43",
"1$	c #9F9117",
"2$	c #A89F9A",
"3$	c #8F8314",
"4$	c #ACA19C",
"5$	c #341C03",
"6$	c #4E423B",
"7$	c #9E9117",
"8$	c #595108",
"9$	c #A69D98",
"0$	c #ADA39C",
"a$	c #726C67",
"b$	c #675E0B",
"c$	c #A79D97",
"d$	c #716C66",
"e$	c #69635D",
"f$	c #4C4038",
"g$	c #938615",
"h$	c #8B7F13",
"i$	c #A9A09A",
"j$	c #6B655F",
"k$	c #6A645E",
"l$	c #A09791",
"m$	c #ABA29C",
"n$	c #473A31",
"o$	c #4B3F39",
"p$	c #968A3C",
"q$	c #645C57",
"r$	c #898158",
"s$	c #887D43",
"t$	c #7A6E12",
"u$	c #9E9490",
"v$	c #9B928D",
"w$	c #3F2E23",
"x$	c #706A65",
"y$	c #645D57",
"z$	c #403025",
"A$	c #67605A",
"B$	c #A79E98",
"C$	c #3D2D20",
"D$	c #ACA39C",
"E$	c #AFA59E",
"F$	c #392617",
"G$	c #77716C",
"H$	c #493D34",
"I$	c #A99E96",
"J$	c #331C02",
"K$	c #331C03",
"L$	c #A99F99",
"M$	c #4D4139",
"N$	c #4F443C",
"O$	c #4F443D",
"P$	c #A39993",
"Q$	c #AAA29D",
"R$	c #4E433B",
"S$	c #473930",
"T$	c #6A635E",
"U$	c #AFA6A1",
"V$	c #AFA7A3",
"W$	c #605952",
"X$	c #A09995",
"Y$	c #3E2E21",
"Z$	c #A49B94",
"`$	c #5C544E",
" %	c #B6ADA8",
".%	c #B9ADA7",
"+%	c #BAB1AA",
"@%	c #C5BBB7",
"#%	c #C6BCB9",
"$%	c #C2B6B2",
"%%	c #AEA5A2",
"&%	c #C3BAB5",
"*%	c #B1A8A4",
"=%	c #BFB7B0",
"-%	c #B3ACA7",
";%	c #B5A8A3",
">%	c #B6ABA5",
",%	c #B7ADAB",
"'%	c #BBAFA9",
")%	c #B8AFA9",
"!%	c #CBC0BB",
"~%	c #C4BCB5",
"{%	c #AEA5A4",
"]%	c #B2A7A4",
"^%	c #AAA19E",
"/%	c #CEC5BD",
"(%	c #BAAFAB",
"_%	c #BDB1AC",
":%	c #C5BCB7",
"<%	c #C0B3AD",
"[%	c #BFB5B1",
"}%	c #BDB3AA",
"|%	c #C4B8B1",
"1%	c #C1B5AF",
"2%	c #C3BAB4",
"3%	c #C5B9B3",
"4%	c #C1B5AE",
"5%	c #C2B6AF",
"6%	c #B9ADA8",
"7%	c #C2B7B2",
"8%	c #C6BDB5",
"9%	c #B3A8A5",
"0%	c #B9AFA9",
"a%	c #B8AEA7",
"b%	c #B4AAA7",
"c%	c #B3A9A5",
"d%	c #C1B8AF",
"e%	c #C3B7AE",
"f%	c #C3B9B1",
"g%	c #BEB1AA",
"h%	c #C7BCB3",
"i%	c #C6BAB4",
"j%	c #C0B5AE",
"k%	c #BDB5B0",
"l%	c #B8AEA6",
"m%	c #B6AEA8",
"n%	c #C4BBB2",
"o%	c #B7AFA9",
"p%	c #C7BCB4",
"q%	c #CEC4BE",
"r%	c #C0B8B3",
"s%	c #BCB5B0",
"t%	c #C2BAB1",
"u%	c #B4ACA8",
"v%	c #A8A09D",
"w%	c #BDB2AA",
"x%	c #BAB2AC",
"y%	c #C3BAB6",
"z%	c #C6BCB8",
"A%	c #C3B9B5",
"B%	c #C3B8B0",
"C%	c #C4BAB5",
"D%	c #B9B2AB",
"E%	c #B3ABA3",
"F%	c #B9B0A9",
"G%	c #BEB6B1",
"H%	c #B5ACA9",
"I%	c #C9BFB8",
"J%	c #C0B7AE",
"K%	c #C1B7AF",
"L%	c #C1B9B4",
"M%	c #CAC2BA",
"N%	c #B6ADA9",
"O%	c #BDB1AD",
"P%	c #B0A8A3",
"Q%	c #C0B8B1",
"R%	c #BEB6B2",
"S%	c #C1B5B1",
"T%	c #C3B9B0",
"U%	c #B6AAA4",
"V%	c #B4ABA8",
"W%	c #C1B7B3",
"X%	c #BCB4AE",
"Y%	c #BFB2AD",
"Z%	c #B2A8A3",
"`%	c #CBC1B9",
" &	c #C4BCB3",
".&	c #BAAFA8",
"  . + @ # $ % & * = - ; > , ' ) ! ~ + { ] ^ / ( _ { : < [ } | 1 2 3 4 5 6 7 8 9 0 a [ b c d e f g h f | i j k l m n   o p m 4 q ",
"' r s t u v w x ] y z A c B [ C D 0 E F G H D I @ J K L M N O P Q , v R S T f U V + 8 W X Y 5 Z q : { `  .w ..+.@.#.$.%.&.z *.=.",
"-.;.>.M | ,.'.).!.~.=.{./ f S + ].^./.1 Q / ) ( (._.I J :.K <.[.}.( |.= 2 1.w 2.3.Y 2 w : 4.I 5.6.q 7.8.}.9.0.3 a.b.c.d.}.n e.W ",
"f.h f g.h.[ i.j.k.l.f *.m.H c n.$ A + ;._ f o.S a W f.p.: q.r.s.t.u.F a.v.w.W f.h.[./ x.y.z.A.B.C.D.E.r.F.{ G.H.3.I.= J.K.n L.M.",
"N.O.y P.v Q.R.S.U T.+ U.2 K =.f.R.  z s.V.f.B.% Y =.W.I h 8.l =.X.Y.Z.N X a B.`.Q 7 | a  +.+{ D ++~ ~ @+4.m #+$+| %+w { &+*+..w.",
"J.$+/ =+-+;+4 h >+,+'+)+, ;.3.2.H 3.V.f.E.- A !+,.) `.x F._ ~+{+]+O ^+~+> /+: ] : U (+/ _+:+<+U.@+h.[+}+|+L.G y 1+2+| 3+4+5+W 7 ",
"6+7+` i /.8+S.9+0+# i.(+4 4 a+b+c+E.2 D @ ) d+e+H.| X (+a.r.c+- e f+4 K - f.P a N.~+: m.(+O ~ 4 W g+h+i+^ 3.{ 9+g 3.s.*+j+m.>+:.",
"k+E.J 0 k.v l+< y % m+n+o+L.p+[.Q I 1.~ q+`.=.h.v r+l #.` > J.s+{ m.z f [.m.;+a { !+u t+/ L.+ #.: ^ s.b 4 @ u `.u+%.x.f v+w+!+x+",
"y+z+A+ .q.B+C+H s+D+< m.Q S E+s.h z M F+h+ .+ v h | G+H+I+w.&+| { y L.S J+= a K+L+!+a.M+( S./ x.N+K [.5 c+B.f.O+D.[.[.-.P+Q+>+R+",
"S+T+U+e+: %.  I W.u v U+V+~.W+8.( h f K S X++.#.4 f+s.A : S Y+q.Z+a A.: | `+e  @;.H - m..@r+v 7 V.K 7 Q (.f.{ p.Y ) q f.8.+@T+@@",
"#@$@q.n f `.4 :.%@^ G 1.&@< ~._ / F.g+7.7 = W *@F c+g w.> %.N.E t+w.=@z z -@Y+w+j ~+8+n+Y | u G K B.9 : @ a.- h.w.B ;@# Y >@,@'@",
")@!@~@{@{@{@~@]@^@/@/@/@/@/@/@/@/@/@/@/@/@/@/@/@/@/@/@/@/@/@/@/@/@/@/@/@/@/@/@/@/@/@/@/@/@/@/@/@/@/@/@/@/@/@/@^@]@~@{@{@{@~@!@(@",
"_@:@:@<@[@}@|@~@1@2@/@/@/@/@/@/@/@/@/@/@/@/@/@/@/@/@/@/@/@/@/@/@/@/@/@/@/@/@/@/@/@/@/@/@/@/@/@/@/@/@/@/@/@/@2@1@~@|@}@[@<@:@:@N.",
"3@:@4@5@/@/@6@7@~@8@9@0@/@/@/@/@/@/@/@/@/@/@/@/@/@/@/@/@/@/@/@/@/@/@/@/@/@/@/@/@/@/@/@/@/@/@/@/@/@/@/@/@0@9@8@~@7@6@/@/@5@4@:@a@",
"b@:@9@/@/@5@c@d@~@~@:@|@e@f@/@/@/@/@/@/@/@/@/@/@/@/@/@/@/@/@/@/@/@/@/@/@/@/@/@/@/@/@/@/@/@/@/@/@/@/@f@e@|@:@~@~@d@c@5@/@/@9@:@-+",
"g@~@h@/@/@i@j@~@~@~@~@~@:@k@/@/@/@/@/@/@/@/@/@/@/@/@/@/@/@/@/@/@/@/@/@/@/@/@/@/@/@/@/@/@/@/@/@/@/@/@k@:@~@~@~@~@~@j@i@/@/@h@~@Y+",
"l@m@{@n@o@p@{@~@q@r@s@t@~@u@v@/@/@/@/@/@/@/@/@/@/@/@/@/@/@/@/@/@/@/@/@/@/@/@/@/@/@/@/@/@/@/@/@/@/@v@u@~@t@s@r@q@~@{@p@o@n@{@m@>.",
"w@x@~@~@~@~@~@y@z@/@/@}@1@{@A@/@/@/@/@/@/@/@/@/@/@/@/@/@/@/@/@/@/@/@/@/@/@/@/@/@/@/@/@/@/@/@/@/@/@A@{@1@}@/@/@z@y@~@~@~@~@~@x@B@",
"C@/@D@7@u@:@{@9@/@/@/@E@F@{@A@/@/@/@/@/@/@/@/@/@/@/@/@/@/@/@/@/@/@/@/@/@/@/@/@/@/@/@/@/@/@/@/@/@/@A@{@F@E@/@/@/@9@{@:@u@7@D@/@G@",
"H@/@/@/@I@J@~@K@L@/@M@N@~@{@O@[@[@[@P@/@/@/@/@/@/@/@/@/@/@Q@R@R@R@R@Q@/@/@/@/@/@/@/@/@/@/@P@[@[@[@O@{@~@N@M@/@L@K@~@J@I@/@/@/@S@",
"T@/@/@/@/@U@{@~@V@7@W@{@~@~@X@{@{@{@Y@Z@9@/@/@/@/@/@/@`@ #.#+#+#+#+#.# #`@/@/@/@/@/@/@9@Z@Y@{@{@{@X@~@~@{@W@7@V@~@{@U@/@/@/@/@@#",
"##/@/@/@/@$#%#&#~@~@~@~@~@~@:@*#*#*#j@~@=#$#/@/@/@/@-#;#>#,#'#)#)#'#,#>#;#-#/@/@/@/@$#=#~@j@*#*#*#:@~@~@~@~@~@~@&#%#$#/@/@/@/@!#",
"~#/@/@/@/@/@0@[@{#]#]#^#~@{@/#9@r@r@c@1@{@%#0@/@/@(#_#:#<#[#/@/@/@/@[#<#:#_#(#/@/@0@%#{@1@c@r@r@9@/#{@~@^#]#]#{#[@0@/@/@/@/@/@}#",
"|#/@/@/@/@/@/@/@/@/@/@1#~@h@/@/@/@/@/@2#{@*#3#4#5@R@5#6#/@/@/@/@/@/@/@/@6#5#R@5@4#3#*#{@2#/@/@/@/@/@h@~@1#/@/@/@/@/@/@/@/@/@/@7#",
"8#/@/@/@/@/@/@/@/@/@/@1#~@h@/@/@/@/@/@2#{@9#0#q@a#b#c#d#/@/@/@/@/@/@/@/@d#c#b#a#q@0#9#{@2#/@/@/@/@/@h@~@1#/@/@/@/@/@/@/@/@/@/@e#",
"f#/@/@/@/@/@/@/@/@/@/@g#h#{@/#9@r@r@c@1@~@{@{@{@i#j#k#/@/@/@/@/@/@/@/@/@/@k#j#i#{@{@{@~@1@c@r@r@9@/#{@h#g#/@/@/@/@/@/@/@/@/@/@l#",
"m#/@/@/@/@/@/@/@/@/@/@n#o#~@:@*#*#*#j@~@~@p#q#r#s#t#u#v@/@/@/@/@/@/@/@/@v@u#t#s#r#q#p#~@~@j@*#*#*#:@~@o#n#/@/@/@/@/@/@/@/@/@/@v#",
"w#/@/@/@/@/@/@/@/@/@/@/@5@x#y#{@{@{@~@9#z#/@/@/@A#B#C#D#`@`@`@`@`@`@`@`@D#C#B#A#/@/@/@z#9#~@{@{@{@y#x#5@/@/@/@/@/@/@/@/@/@/@/@E#",
"F#/@/@/@/@/@/@/@/@/@/@/@/@/@G#[@[@H#{@I#9@/@/@J#K#L#M#N#O#O#O#O#O#O#O#O#N#M#L#K#J#/@/@9@I#{@H#[@[@G#/@/@/@/@/@/@/@/@/@/@/@/@/@P#",
"Q#/@/@/@/@/@/@/@/@/@/@/@/@/@/@/@/@A@{@F@E@/@/@J#R#L#L#L#L#L#L#L#L#L#L#L#L#L#L#R#J#/@/@E@F@{@A@/@/@/@/@/@/@/@/@/@/@/@/@/@/@/@/@S#",
"T#/@/@/@/@/@/@/@/@/@/@/@/@/@/@/@/@U#V#~@W#M@X#Y#R#L#L#L#L#L#L#L#L#L#L#L#L#L#L#R#Y#X#M@W#~@V#U#/@/@/@/@/@/@/@/@/@/@/@/@/@/@/@/@Z#",
"`#/@/@/@/@/@/@/@/@/@/@/@/@/@/@/@/@/@i@1@{@ $K@.$+$L#L#L#L#L#L#L#L#L#L#L#L#L#L#+$.$K@ ${@1@i@/@/@/@/@/@/@/@/@/@/@/@/@/@/@/@/@/@@$",
"#$/@/@/@/@/@/@/@/@/@/@/@/@/@/@/@/@/@/@$$%$&${@*$=$L#L#L#L#L#-$;$;$-$L#L#L#L#L#=$*${@&$%$$$/@/@/@/@/@/@/@/@/@/@/@/@/@/@/@/@/@/@>$",
",$/@/@/@/@/@/@/@/@/@/@/@/@/@/@/@/@/@/@/@f@'$a#)$!$L#L#L#L#L#~$;$;$~$L#L#L#L#L#!$)$a#'$f@/@/@/@/@/@/@/@/@/@/@/@/@/@/@/@/@/@/@/@w#",
"{$/@/@/@/@/@/@/@/@/@/@/@/@/@/@/@/@/@/@/@/@/@/@Y#]$L#L#L#L#^$;$;$;$;$^$L#L#L#L#]$Y#/@/@/@/@/@/@/@/@/@/@/@/@/@/@/@/@/@/@/@/@/@/@>$",
"/$/@/@/@/@/@/@/@/@/@/@/@/@/@/@/@/@/@/@/@/@/@/@($_$L#L#L#L#:$<$;$;$<$:$L#L#L#L#_$($/@/@/@/@/@/@/@/@/@/@/@/@/@/@/@/@/@/@/@/@/@/@[$",
"}$/@/@/@/@/@/@/@/@/@/@/@/@/@/@/@/@/@/@/@/@5@|$*$=$L#L#L#L#1$:$;$;$:$1$L#L#L#L#=$*$|$5@/@/@/@/@/@/@/@/@/@/@/@/@/@/@/@/@/@/@/@/@/$",
"2$/@/@/@/@/@/@/@/@/@/@/@/@/@/@/@/@/@/@5@5@n#^#~@=$L#L#L#L#L#3$;$;$3$L#L#L#L#L#=$~@^#n#5@5@/@/@/@/@/@/@/@/@/@/@/@/@/@/@/@/@/@/@4$",
"l#/@/@/@/@/@/@/@/@/@/@/@/@/@/@/@/@5$6$^#^#^#]@~@=$L#L#L#L#7$8$;$;$8$7$L#L#L#L#=$~@]@^#^#^#6$5$/@/@/@/@/@/@/@/@/@/@/@/@/@/@/@/@9$",
"0$/@/@/@/@/@/@/@/@/@/@/@/@/@/@/@2@a$~@~@~@~@~@~@=$L#L#L#L#b$;$;$;$;$b$L#L#L#L#=$~@~@~@~@~@~@a$2@/@/@/@/@/@/@/@/@/@/@/@/@/@/@/@c$",
"`#/@/@/@/@/@/@/@/@/@/@/@/@/@/@/@d$~@e$f$f$f$%$~@=$L#L#L#L#g$h$h$h$h$g$L#L#L#L#=$~@%$f$f$f$e$~@d$/@/@/@/@/@/@/@/@/@/@/@/@/@/@/@c$",
"i$/@/@/@/@/@/@/@/@/@/@/@/@/@f@j$~@k$9@/@/@/@6@ $=$L#L#L#L#L#L#L#L#L#L#L#L#L#L#=$ $6@/@/@/@9@k$~@j$f@/@/@/@/@/@/@/@/@/@/@/@/@/@l$",
"m$/@/@/@/@/@/@/@/@/@/@/@/@/@X#K@{@n$/@/@/@/@/@o$p$L#L#L#L#L#L#L#L#L#L#L#L#L#L#p$o$/@/@/@/@/@n${@K@X#/@/@/@/@/@/@/@/@/@/@/@/@/@v#",
"T#/@/@/@/@/@/@/@/@/@6@9@9@9@3#k$~@W@9@/@/@/@9@q$r$s$;#t$t$t$t$t$t$t$t$t$t$;#s$r$q$9@/@/@/@9@W@~@k$3#9@9@9@6@/@/@/@/@/@/@/@/@/@u$",
"v$/@/@/@/@/@/@/@/@w$x$I#I#I#I#:@~@~@y$z$z$z$A$~@j@O@/@/@/@/@/@/@/@/@/@/@/@/@O@j@~@A$z$z$z$y$~@~@:@I#I#I#I#x$w$/@/@/@/@/@/@/@/@B$",
"|#/@/@/@/@/@/@f@N@{@~@{@{@{@~@~@~@{@{@{@{@{@{@]@C$/@/@/@/@/@/@/@/@/@/@/@/@/@/@C$]@{@{@{@{@{@{@~@~@~@{@{@{@~@{@N@f@/@/@/@/@/@/@D$",
"E$/@/@X#X#X#f@F$x$1@q@v@A@L@y@G${@H$|$x$x$x$g#U#/@/@/@/@/@/@/@/@/@/@/@/@/@/@/@/@U#g#x$x$x$|$H${@G$y@L@A@v@q@1@x$F$f@X#X#X#/@/@I$",
"`#/@I@A$K@K@j$f${@V@J$/@/@/@6@K@{@a#f@K$K$K$X#/@/@/@/@/@/@/@/@/@/@/@/@/@/@/@/@/@/@X#K$K$K$f@a#{@K@6@/@/@/@J$V@{@f$j$K@K@A$I@/@L$",
"P#M${@{@{@{@{@~@~@&$N$6@K$6@O$y@F@r#/@/@/@/@/@/@/@/@/@/@/@/@/@/@/@/@/@/@/@/@/@/@/@/@/@/@/@/@r#F@y@O$6@K$6@N$&$~@~@{@{@{@{@{@M$P$",
"Q$9#~@R$a#a#S$:@~@~@~@x$x$x$~@~@T$f@/@/@/@/@/@/@/@/@/@/@/@/@/@/@/@/@/@/@/@/@/@/@/@/@/@/@/@/@f@T$~@~@x$x$x$~@~@~@:@S$a#a#R$~@9#U$",
"V$~@0#'$6@6@3#W$~@t@m@{@{@{@1@y$r@/@/@/@/@/@/@/@/@/@/@/@/@/@/@/@/@/@/@/@/@/@/@/@/@/@/@/@/@/@/@r@y$1@{@{@{@m@t@~@W$3#6@6@'$0#~@G.",
"X$q@~@V#J@J@J@~@1@2@^@z$z$z$Y$5@/@/@/@/@/@/@/@/@/@/@/@/@/@/@/@/@/@/@/@/@/@/@/@/@/@/@/@/@/@/@/@/@5@Y$z$z$z$^@2@1@~@J@J@J@V#~@q@Z$",
"@#f@N@1@~@~@~@`$H#/@/@/@/@/@/@/@/@/@/@/@/@/@/@/@/@/@/@/@/@/@/@/@/@/@/@/@/@/@/@/@/@/@/@/@/@/@/@/@/@/@/@/@/@/@/@H#`$~@~@~@1@N@f@c$",
"*@t.w T+{  %a.) W..%h.c >++%w.%.H I /+@ X+b @%#%$%T+%.W r y %%y 8 s+&%B.*%G.=%v m.z 3 ;.-%;.;%B.< ~ v g F 8 = : >%F.]+s.S /+,%a+",
"c.N B x.e+~.S 2 '%1.J 9+B.).J U.M )%2.b X+>+@@!%%.= ~%_.f.h {%8.:.X [.H s+A.]%w.: g t+f = r.h n+^.- @ I+F.m.@ 0+^ 3.U =@:.N ^%Y ",
"] D /%7 / w (%D L.^.^ [._%~ N f R :%k c.F.f.N :.<%L x+E.[%h N W R.X 4 < N L.t+U h.9+1+L.o+3.X w.I  %/ ~ ~.: q.=.P @ 4 _.t+3.< O+",
"^ L.{ F b+(+P+'%W ) c+}%|%( A A.o+1%2%c.3%'.~ 4%@ 5%p.;.m.4 R+g+>@n V.!+`.] A S+=.2 6%W 7%c+X %.8%- 9%E.H 2 4 0%U.%.a. %g 2.a%b%",
"s+H.c%Q (+5 ( < ~+d%4%e%v f%u %.E.+ p+5 4 g%= h%N h f%< 0%> U v c _%v r+].W.{ =.(%1 i%j%~ (%b k%@ q.+%l%m%f.G n%@ _.[.h.o%w q /.",
"s.< Y+v.S y A.K M w h v h.s.(+J.7 / x.2%f.( .@Q p%q%o+u S z o+p.).h : f.]+y S h G Q / q.[+)+r%s%: e q ~+S.M 4 4.c+h y -.g K L./.",
")%7%2 m.V.5.I+Q f f.: h L.: i+V.}.4 t+{ ) S.(+A   y +%, ~ / 5.(%) *@7%a ;.4+l *@U.4 X =.K.t%W - e + _.F.u%f P.X+{ o+K H.*%W _ t%",
"2.v%y N u 9 t+c.N m.f.F.V.h m.V.^ r+:.|.1.h m ( u Y w%~+f a T+;.(%x%y%r+z%U.F.c.A%2%E.^ ^.B%V.1%r+2 4.l G C%D%Z O g.=.s+E%(+F%k ",
"@ G.G%{ - f+I > W H%]+z 4 D Q _+&+a @@{ #.x.w : F.) S+V.L.E.r+I%{ s%p+>@&%O+&+J%x.#+) (+0%5.c K%= L%w+o+  K.@ !.*.M%;.f.; N%0.K ",
"I m.L.2 I.] K m.O%m.<.@ ^ K %.8.3%W g 2 P%8.m 2%%@t+~ &+) 6 > 5 P+@ 2 ] = { = c 1 ]%K - 8.G P )%#.+%Q%] 0+R%>+p.S%5 v 0%f.p+o+p+",
"W *.K%T%U%H.;. .n V%W%U K.f.-.c ^ N I y ;+:.w.| 9.~ A.(%C.U+X%2+8.-.9 Y%h g+q o.( Z%*.c+:.7%Q - / 3.v `%!., g U.++ &T+%+m .&8. @"};
