/* XPM */
static char * road_xpm[] = {
"64 64 647 2",
"  	c #C0B4AE",
". 	c #BDB4AC",
"+ 	c #BEB4AD",
"@ 	c #C1B6B0",
"# 	c #BEB3AB",
"$ 	c #C0B6AE",
"% 	c #C1B6AE",
"& 	c #BCAFA8",
"* 	c #CAC0B9",
"= 	c #BEB5AF",
"- 	c #BEB4AE",
"; 	c #B7ACA8",
"> 	c #B8ADA9",
", 	c #B7AEA8",
"' 	c #B4ABA5",
") 	c #BCB2AB",
"! 	c #C7BDB8",
"~ 	c #C2B8B2",
"{ 	c #BCB1AC",
"] 	c #BEB5AE",
"^ 	c #C0B5B0",
"/ 	c #BDB2AD",
"( 	c #C1B7B0",
"_ 	c #BCB3AC",
": 	c #BAAFAA",
"< 	c #BAAFA9",
"[ 	c #B0A7A2",
"} 	c #B3A8A3",
"| 	c #BFB6B0",
"1 	c #C1B6B2",
"2 	c #C1B8B1",
"3 	c #B6ADA7",
"4 	c #C0B5AF",
"5 	c #C5BCB5",
"6 	c #B5ABA7",
"7 	c #BFB4B0",
"8 	c #B4A9A4",
"9 	c #B7ACA7",
"0 	c #BDB2AB",
"a 	c #BBB1AC",
"b 	c #C2B8B3",
"c 	c #C0B6B0",
"d 	c #AFA49F",
"e 	c #BCB3AD",
"f 	c #BFB4AE",
"g 	c #BBB2AD",
"h 	c #C0B6AF",
"i 	c #B9B1AA",
"j 	c #BAB2AD",
"k 	c #BEB5B0",
"l 	c #C5BBB6",
"m 	c #C7BCB6",
"n 	c #C5BCB6",
"o 	c #CFC6C1",
"p 	c #C9BFB7",
"q 	c #B6ABA7",
"r 	c #BBB1A9",
"s 	c #BFB4AC",
"t 	c #BCB0A9",
"u 	c #BCB2AC",
"v 	c #BFB5AE",
"w 	c #B8ADA8",
"x 	c #B5ABA5",
"y 	c #BDB4AE",
"z 	c #BFB5B0",
"A 	c #C4BAB3",
"B 	c #B4A9A5",
"C 	c #C4B8B2",
"D 	c #C3B9B3",
"E 	c #B6ACA7",
"F 	c #BBB1AA",
"G 	c #BFB4AF",
"H 	c #B8AEA9",
"I 	c #C2B8B1",
"J 	c #C6BBB5",
"K 	c #C2B9B2",
"L 	c #C8BEB7",
"M 	c #BFB5AF",
"N 	c #BDB3AC",
"O 	c #C9BEB8",
"P 	c #C2B7B3",
"Q 	c #C2B7B1",
"R 	c #C4BAB4",
"S 	c #B9AEA9",
"T 	c #BEB3B0",
"U 	c #C1B7B1",
"V 	c #C1B6AF",
"W 	c #BDB2AC",
"X 	c #BBB0AC",
"Y 	c #B5ABA6",
"Z 	c #CBC2BB",
"` 	c #C6BCB3",
" .	c #BCB3AE",
"..	c #C1B8B3",
"+.	c #C2B9B4",
"@.	c #C6BBB7",
"#.	c #C2B9B3",
"$.	c #B9B1AC",
"%.	c #BEB4AF",
"&.	c #D0C6BF",
"*.	c #C7BDB7",
"=.	c #BCB1AB",
"-.	c #B7ADA9",
";.	c #BDB4AF",
">.	c #B2A9A5",
",.	c #B3AAA4",
"'.	c #B5ABA4",
").	c #C2B8B0",
"!.	c #B7AEA9",
"~.	c #B3A9A4",
"{.	c #B2A9A4",
"].	c #BDB1AB",
"^.	c #B9AFA8",
"/.	c #B9AEA8",
"(.	c #C1B8B0",
"_.	c #BAB1AC",
":.	c #C5BAB4",
"<.	c #BDB4B0",
"[.	c #B9B0AB",
"}.	c #C6BDB6",
"|.	c #BEB6AF",
"1.	c #BBB0AA",
"2.	c #B6ACA8",
"3.	c #B9AEAA",
"4.	c #C8BFB8",
"5.	c #BFB6AF",
"6.	c #B8AFA8",
"7.	c #B5ACA8",
"8.	c #C3BAB3",
"9.	c #C4BCB4",
"0.	c #C6BDB7",
"a.	c #BDB2AE",
"b.	c #C6B9B2",
"c.	c #BAB1AB",
"d.	c #B7AFAB",
"e.	c #C2B9B5",
"f.	c #BEB3AD",
"g.	c #C4B9B4",
"h.	c #BDB4AD",
"i.	c #BEB2AC",
"j.	c #BFB3AA",
"k.	c #BCB2AA",
"l.	c #BFB4AD",
"m.	c #BDB3AE",
"n.	c #C2B8AF",
"o.	c #C6BCB5",
"p.	c #C1B6B1",
"q.	c #C4BBB4",
"r.	c #B8AEAA",
"s.	c #B9AFAA",
"t.	c #B3AAA6",
"u.	c #B3ABA7",
"v.	c #BAB0AC",
"w.	c #BDB3AD",
"x.	c #BEB3AF",
"y.	c #DBD5CF",
"z.	c #CFC7C0",
"A.	c #C0B5B1",
"B.	c #B8ADA7",
"C.	c #B1A8A2",
"D.	c #B8AFAA",
"E.	c #BCB2AD",
"F.	c #BBB0AB",
"G.	c #B1A7A3",
"H.	c #B5ACA6",
"I.	c #C8BDB5",
"J.	c #C5BBB5",
"K.	c #C3B8B4",
"L.	c #C3B8B2",
"M.	c #B5AAA4",
"N.	c #B5ACA7",
"O.	c #BCAFA9",
"P.	c #B3AAA5",
"Q.	c #B9AEA7",
"R.	c #BBB2AB",
"S.	c #BBB1AB",
"T.	c #BDB4AB",
"U.	c #C1B8B2",
"V.	c #C3B9B2",
"W.	c #BAB0A9",
"X.	c #AFA6A5",
"Y.	c #B1A7A4",
"Z.	c #BBB0A8",
"`.	c #BAB0AA",
" +	c #D6CBC8",
".+	c #D1C6C1",
"++	c #C2B8B4",
"@+	c #C5BBB3",
"#+	c #BCB2AE",
"$+	c #C7BEB8",
"%+	c #C8BEB8",
"&+	c #C0B6B1",
"*+	c #C4BBB6",
"=+	c #C0B6AD",
"-+	c #B2A9A2",
";+	c #BFB6B1",
">+	c #C2B6B0",
",+	c #BEB3AC",
"'+	c #C4BBB7",
")+	c #CAC2B9",
"!+	c #BAB0AB",
"~+	c #B7ADA8",
"{+	c #A79D9D",
"]+	c #BBB1AD",
"^+	c #B5AAA6",
"/+	c #B4ABA6",
"(+	c #BEB3AE",
"_+	c #C6BCB7",
":+	c #D0C7C0",
"<+	c #C6BEB7",
"[+	c #C9C0BA",
"}+	c #CFC5BE",
"|+	c #CBC2B9",
"1+	c #BDB5AF",
"2+	c #C5BBB4",
"3+	c #B8AFAC",
"4+	c #B9B0AD",
"5+	c #C0B7B2",
"6+	c #BAAEA8",
"7+	c #C2B7B0",
"8+	c #B8ACA8",
"9+	c #BFB3AD",
"0+	c #BDB3AF",
"a+	c #B8AFAB",
"b+	c #B9AEAB",
"c+	c #C0B7B0",
"d+	c #B7AEA7",
"e+	c #B6ACA6",
"f+	c #C3B8B3",
"g+	c #B6ABA6",
"h+	c #CCC3BC",
"i+	c #C9C0B9",
"j+	c #B2AAA8",
"k+	c #C7BCB5",
"l+	c #B1AAA4",
"m+	c #BBAFA8",
"n+	c #B5AAA5",
"o+	c #C4B9B3",
"p+	c #C4BBB5",
"q+	c #C5B9B5",
"r+	c #C0B7B1",
"s+	c #B9B0AA",
"t+	c #BCB1AD",
"u+	c #B7ADA7",
"v+	c #BCB4B0",
"w+	c #BCB4AF",
"x+	c #C7BEB7",
"y+	c #CAC0BA",
"z+	c #CCC2BC",
"A+	c #BEB4AC",
"B+	c #BAB1AD",
"C+	c #B4AAA4",
"D+	c #B8ACA6",
"E+	c #BAB3AD",
"F+	c #C3B7B1",
"G+	c #B6AEAC",
"H+	c #C7BEB9",
"I+	c #BBB2AC",
"J+	c #BCB3AF",
"K+	c #B7ADAA",
"L+	c #B4AAA6",
"M+	c #B6ABA8",
"N+	c #BCB0AB",
"O+	c #B9AFAB",
"P+	c #C6BCB6",
"Q+	c #BEB5B1",
"R+	c #C8BDB6",
"S+	c #C7BDB6",
"T+	c #BEB4B0",
"U+	c #B7ACA6",
"V+	c #B7ACA5",
"W+	c #B0A5A1",
"X+	c #C1B7B2",
"Y+	c #B7AEAA",
"Z+	c #B4ABA7",
"`+	c #BAB1AE",
" @	c #BBB0AD",
".@	c #C3B9B4",
"+@	c #C5BDB4",
"@@	c #C0B6B2",
"#@	c #CBC1B9",
"$@	c #C1B5B1",
"%@	c #C8BDB7",
"&@	c #CBC3BC",
"*@	c #C2B7B2",
"=@	c #BCB4B1",
"-@	c #BFB8B2",
";@	c #BDB5B0",
">@	c #BBAFAB",
",@	c #B1A8A5",
"'@	c #C0B5AD",
")@	c #CCC3BD",
"!@	c #C0B8B4",
"~@	c #CEC3BF",
"{@	c #D5CBC3",
"]@	c #CDC4BD",
"^@	c #C8BFBA",
"/@	c #C6BAB3",
"(@	c #C5BDB5",
"_@	c #C3B9B0",
":@	c #BDB3B0",
"<@	c #B8B0AC",
"[@	c #BEB6B2",
"}@	c #B1A6A2",
"|@	c #C8BEB9",
"1@	c #C9C0BB",
"2@	c #D0C7C1",
"3@	c #CDC2BC",
"4@	c #C4B9B2",
"5@	c #B7ABA7",
"6@	c #A9A19D",
"7@	c #C1B9B3",
"8@	c #BEB2AD",
"9@	c #B4ACAA",
"0@	c #C9BEB9",
"a@	c #BBAEA9",
"b@	c #BAAFAB",
"c@	c #CCC1BB",
"d@	c #BCB2AF",
"e@	c #C3BCB5",
"f@	c #C0B8B2",
"g@	c #BFBAB9",
"h@	c #C1B7B3",
"i@	c #C9BEB7",
"j@	c #BAB2AB",
"k@	c #AEA5A2",
"l@	c #B1A7A2",
"m@	c #BFB6AE",
"n@	c #AAA09F",
"o@	c #B9AFA9",
"p@	c #CDC3BE",
"q@	c #B1A9A5",
"r@	c #B2A7A2",
"s@	c #B8ACA7",
"t@	c #CEC5BE",
"u@	c #C6BDB8",
"v@	c #A39F9F",
"w@	c #C6BDBA",
"x@	c #BDB5AE",
"y@	c #BEB2AA",
"z@	c #B0A6A0",
"A@	c #B3AAA3",
"B@	c #ACA59E",
"C@	c #AEA5A0",
"D@	c #C3BAB4",
"E@	c #C5B9B3",
"F@	c #CAC0BB",
"G@	c #C3B9B5",
"H@	c #ACA9A5",
"I@	c #BFB5B3",
"J@	c #B8AFA9",
"K@	c #C3B9B1",
"L@	c #999491",
"M@	c #A7A19D",
"N@	c #BDB1AD",
"O@	c #C5BAB5",
"P@	c #CAC1BA",
"Q@	c #BCB1AE",
"R@	c #B9B0A9",
"S@	c #C1B9B2",
"T@	c #BBAFA9",
"U@	c #B9ADA8",
"V@	c #C3BAB5",
"W@	c #B4ADA9",
"X@	c #CABFBB",
"Y@	c #AFA6A2",
"Z@	c #B4AAA5",
"`@	c #B6ADA8",
" #	c #C4BAB7",
".#	c #BDB2AF",
"+#	c #B9B0AC",
"@#	c #C6BCB8",
"##	c #C0B7B5",
"$#	c #C0B5AC",
"%#	c #C4BBB3",
"&#	c #BDB3AA",
"*#	c #B0A7A1",
"=#	c #BAB1AA",
"-#	c #B7ADA6",
";#	c #BDB4B1",
">#	c #BBB2AE",
",#	c #B6ADAB",
"'#	c #BFB7B4",
")#	c #BBB4B0",
"!#	c #C6BDB9",
"~#	c #ACA39E",
"{#	c #BBAFAA",
"]#	c #B6ABA4",
"^#	c #C1B5B0",
"/#	c #C2BAB2",
"(#	c #B4ACA6",
"_#	c #ACA5A1",
":#	c #C1B7B4",
"<#	c #BBB3AF",
"[#	c #BFB8B9",
"}#	c #C5BEBC",
"|#	c #BCAFA6",
"1#	c #BCB3AA",
"2#	c #BFB5B1",
"3#	c #CDC3BB",
"4#	c #B8ADAA",
"5#	c #AFA6A1",
"6#	c #B8AEA8",
"7#	c #B8ADAB",
"8#	c #BCB1AF",
"9#	c #CFC4BE",
"0#	c #C1B8B4",
"a#	c #C3BBB6",
"b#	c #C4BCBA",
"c#	c #C9C2BB",
"d#	c #B2AAA6",
"e#	c #B6ADA9",
"f#	c #C6BAB0",
"g#	c #BBB3AC",
"h#	c #AFA6A0",
"i#	c #C6BBB6",
"j#	c #C4BAB2",
"k#	c #B7ACA9",
"l#	c #C3BBB4",
"m#	c #B7B0A9",
"n#	c #B8B1AB",
"o#	c #BEB6B3",
"p#	c #BBB2AF",
"q#	c #BDB5B1",
"r#	c #AEA6A3",
"s#	c #B3A8A5",
"t#	c #C1B7AF",
"u#	c #BBB3AD",
"v#	c #CAC1B8",
"w#	c #C0B5AE",
"x#	c #BCB3B1",
"y#	c #C4BBB8",
"z#	c #B6AEAA",
"A#	c #C7BEB5",
"B#	c #C1B5AF",
"C#	c #BBB3B1",
"D#	c #C3BBB3",
"E#	c #C8BEB6",
"F#	c #BCB3B0",
"G#	c #CABFB9",
"H#	c #BFB3AC",
"I#	c #B9B1AB",
"J#	c #C5BCB7",
"K#	c #C8BFB7",
"L#	c #BCB4AE",
"M#	c #BDB2AA",
"N#	c #D1C8C1",
"O#	c #C1B9B1",
"P#	c #C1B7AE",
"Q#	c #C4BAB5",
"R#	c #B4A9A6",
"S#	c #BBB3AE",
"T#	c #C3B8B1",
"U#	c #C9BFB8",
"V#	c #CBC2BD",
"W#	c #C7BDB4",
"X#	c #C5BBB2",
"Y#	c #BBB0A9",
"Z#	c #C7BCB8",
"`#	c #B1A8A3",
" $	c #BEB2AF",
".$	c #BFB3AE",
"+$	c #B9ACA6",
"@$	c #B4ABA8",
"#$	c #B3ABA6",
"$$	c #BAAEAA",
"%$	c #C7BDB5",
"&$	c #C0B8B0",
"*$	c #CBC2BC",
"=$	c #C4B8B3",
"-$	c #B3ACA6",
";$	c #CAC1BC",
">$	c #C7BEB6",
",$	c #BEB7B2",
"'$	c #B5ABA8",
")$	c #B8B0AB",
"!$	c #C1B9B4",
"~$	c #B7AFAA",
"{$	c #B3A9A5",
"]$	c #AA9F9D",
"^$	c #BEB6B0",
"/$	c #B8B1AC",
"($	c #BEB7B0",
"_$	c #C7BFB9",
":$	c #CCC2BB",
"<$	c #C1BAB3",
"[$	c #CAC2BA",
"}$	c #C8C0BA",
"|$	c #BAAFA7",
"1$	c #B8AEA7",
"2$	c #B8ADA6",
"3$	c #B2A9A3",
"4$	c #BCB1AA",
"5$	c #B9AEA6",
"6$	c #BEB6AD",
"7$	c #B5AAA7",
"8$	c #C0B3AE",
"9$	c #B6ABA5",
"0$	c #C8C0B6",
"a$	c #C4BAB1",
"b$	c #AFA5A0",
"c$	c #B2A8A5",
"d$	c #CEC5BC",
"e$	c #CDC4BF",
"f$	c #B5A9A4",
"g$	c #C7BBB5",
"h$	c #B8AEAB",
"i$	c #ACA2A0",
"j$	c #C4BDB5",
"k$	c #BAAFA8",
"l$	c #BAAEAB",
"m$	c #BFB7B0",
"n$	c #ABA19F",
"o$	c #B1A9A6",
"p$	c #CDC2BB",
"q$	c #C0B8B3",
"r$	c #BCB0AA",
"s$	c #C5BAB2",
"t$	c #BDB3AB",
"u$	c #C4B8B1",
"v$	c #B6ACA9",
"w$	c #BAAEA9",
"x$	c #BEB7AF",
"y$	c #AEA59F",
"z$	c #C1B5AD",
"A$	c #C3B5AD",
"B$	c #B9ADA7",
"C$	c #C9BEB5",
"D$	c #CBC1BC",
"E$	c #B5AEAB",
"F$	c #CAC1BB",
"G$	c #A59C98",
"H$	c #ABA29F",
"I$	c #C3BAB1",
"J$	c #B0A8A3",
"K$	c #BAAFAC",
"L$	c #C3B7B2",
"M$	c #AAA29F",
"N$	c #B3ABA5",
"O$	c #C5BAB3",
"P$	c #BEB6B1",
"Q$	c #B7AEAB",
"R$	c #B1A8A4",
"S$	c #B3A9A3",
"T$	c #BDB0AB",
"U$	c #B8ACA4",
"V$	c #B2A8A3",
"W$	c #C2BAB3",
"X$	c #BDB0AA",
"Y$	c #C8C1BA",
"Z$	c #B4AAA3",
"`$	c #B3A8A4",
" %	c #AEA39F",
".%	c #B2A7A3",
"+%	c #BAB2AE",
"@%	c #B6AEA9",
"#%	c #BFB7B2",
"$%	c #B3A9A7",
"%%	c #B2A8A4",
"&%	c #B6ACAA",
"*%	c #C6BEB8",
"=%	c #B5ABAA",
"-%	c #D4CBC3",
";%	c #CEC5C0",
">%	c #BAB3AC",
",%	c #B2A7A6",
"'%	c #C9BFBA",
")%	c #C7BBB4",
"!%	c #C7BFB8",
"~%	c #B4AAA8",
"{%	c #C0B9B3",
"]%	c #C2B7AF",
"^%	c #D1C6C0",
"/%	c #CCC2BA",
"(%	c #B8ACA9",
"_%	c #ACA5A0",
":%	c #ACA29F",
"<%	c #C5BDB7",
"[%	c #C6BDB4",
"}%	c #C8C0B9",
"|%	c #BFB5AD",
"1%	c #BDB5B2",
"2%	c #B8AFAD",
"3%	c #C5BBB8",
"4%	c #B0A4A3",
"5%	c #BFB7B3",
"6%	c #BBB1AF",
"7%	c #C8BDB9",
"8%	c #AEA6A4",
"9%	c #C4BAB6",
"0%	c #B9B2AC",
"a%	c #B7B0AD",
"b%	c #B9ADA9",
"c%	c #C7BBB6",
"d%	c #C4B9B5",
"e%	c #C4BBB2",
"f%	c #C2B6B2",
"g%	c #CAC2BC",
"h%	c #C9BFB9",
"i%	c #C3BAB2",
"j%	c #BEB2AE",
"k%	c #B6AFA9",
"l%	c #C0B7B4",
"m%	c #C8BDB8",
"n%	c #C6BAB4",
"o%	c #C9BFBB",
"p%	c #CAC0BD",
"q%	c #C6BAB6",
"r%	c #B6AFAA",
"s%	c #B8ABA6",
"t%	c #BAB0AE",
"u%	c #CBC0BB",
"v%	c #C4BCB5",
"w%	c #AEA5A4",
"x%	c #B2A7A4",
"y%	c #AAA19E",
"z%	c #CEC5BD",
"A%	c #BDB1AC",
"B%	c #C0B3AD",
"C%	c #C1B5AE",
"D%	c #C2B6AF",
"E%	c #C6BDB5",
"F%	c #B4AAA7",
"G%	c #C1B8AF",
"H%	c #C3B7AE",
"I%	c #BEB1AA",
"J%	c #C7BCB3",
"K%	c #B8AEA6",
"L%	c #B6AEA8",
"M%	c #B7AFA9",
"N%	c #C7BCB4",
"O%	c #CEC4BE",
"P%	c #BCB5B0",
"Q%	c #C2BAB1",
"R%	c #B4ACA8",
"S%	c #A8A09D",
"T%	c #BAB2AC",
"U%	c #C3BAB6",
"V%	c #C3B8B0",
"W%	c #B9B2AB",
"X%	c #B3ABA3",
"Y%	c #B5ACA9",
"Z%	c #C0B7AE",
"`%	c #C0B8B1",
" &	c #B6AAA4",
".&	c #BFB2AD",
"+&	c #C4BCB3",
"  . + @ # $ % & * = - ; > , ' ) ! ~ + { ] ^ / ( _ { : < [ } | 1 2 3 4 5 6 7 8 9 0 a [ b c d e f g h f | i j k l m n   o p m 4 q ",
"' r s t u v w x ] y z A c B [ C D 0 E F G H D I @ J K L M N O P Q , v R S T f U V + 8 W X Y 5 Z q : { `  .w ..+.@.#.$.%.&.z *.=.",
"-.;.>.M | ,.'.).!.~.=.{./ f S + ].^./.1 Q / ) ( (._.I J :.K <.[.}.( |.= 2 1.w 2.3.Y 2 w : 4.I 5.6.q 7.8.}.9.0.3 a.b.c.d.}.n e.W ",
"f.h f g.h.[ i.j.k.l.f *.m.H c n.$ A + ;._ f o.S a W f.p.: q.r.s.t.u.F a.v.w.W f.h.[./ x.y.z.A.B.C.D.E.r.F.{ G.H.3.I.= J.K.n L.M.",
"N.O.y P.v Q.R.S.U T.+ U.2 K =.f.R.  z s.V.f.B.% Y =.W.I h 8.l =.X.Y.Z.N X a B.`.Q 7 | a  +.+{ D ++~ ~ @+4.m #+$+| %+w { &+*+..w.",
"J.$+/ =+-+;+4 h >+,+'+)+, ;.3.2.H 3.V.f.E.- A !+,.) `.x F._ ~+{+]+O ^+~+> /+: ] : U (+/ _+:+<+U.@+h.[+}+|+L.G y 1+2+| 3+4+5+W 7 ",
"6+7+` i /.8+S.9+0+# i.(+4 4 a+b+c+E.2 D @ ) d+e+H.| X (+a.r.c+- e f+4 K - f.P a N.~+: m.(+O ~ 4 W g+h+i+^ 3.{ 9+g 3.s.*+j+m.>+:.",
"k+E.J 0 k.v l+< y % m+n+o+L.p+[.Q I 1.~ q+`.=.h.v r+l #.` > J.s+{ m.z f [.m.;+a { !+u t+/ L.+ #.: ^ s.b 4 @ u `.u+%.x.f v+w+!+x+",
"y+z+A+ .q.B+C+H s+D+< m.Q S E+s.h z M F+h+ .+ v h | G+H+I+w.&+| { y L.S J+= a K+L+!+a.M+( S./ x.N+K [.5 c+B.f.O+D.[.[.-.P+Q+>+R+",
"S+T+U+e+: %.  I W.u v U+V+~.W+8.( h f K S X++.#.4 f+s.A : S Y+q.Z+a A.: | `+e  @;.H - m..@r+v 7 V.K 7 Q (.f.{ p.Y ) q f.8.+@T+@@",
"#@$@S+%+@ u Q %@&@o+L.f.W.W E 5.^ (+S a+f+K 4 9++ q.k @ X *@D.s.7 c q .@D =@B+-@;@!+>@w H 8.M L.}.1.: / :.A.I ( 4 q ,@'@~+;@)@!@",
"~@{@]@r+^@N X+/@F.b+}.J.(@N >._ L._.| J _@:@{ f 6 > Q z 1.: g s.p.{ ] H ^@<@[@0+K p., }@E U { F.!+w.h - : L.Q ) 4 ]+{ U.Q |@*.&@",
"1@2@3@4@3 F y 5@s.1.2 > E./ ; 6@l.4 F.1.L.#.k 7@*@8@=.%.@ H : 3 !+I+.@(+I 9@0@]+(++ G Y 3.O a@b@N *@L.D c@E = $ c.d@e@<.f@..g@$+",
"h@_+i@! j@k@w.Z.e+l@F.m@0 ~ /+n@4 z S.a A.R o@X p.p@p.Z A.F.P.q@c.S. .2 o.0.O t+&+5.I+U H i.r@1.W 3.c '@; b@c.1+s@C .@A h [@t@u@",
"v@w@p x@y@I z@A@V+B@t.+ h ` ( W.X ;.^ &+F.z.@ }.i+*.K b@%.:.; C@z@@@D@p+V.E@E.Z+Z+~+W.{ S ( h.E.W l V (.c ] K+J+[ *@: F@x.;.G@V.",
"H@I@J@] [.K@S.0 N.L@M@{ N@~ f.v c h.2 = q.p+J O@I+J x+ .I P@{.3 ; Q@5./ q.L.3.3.y R@S@u+l@S T@W A.}.U@U v ( : `.v V@V.9+= H+W@X@",
"n J+s.{ B.f T.0 Y@/+S 2.= | t+/ %.7 m F.v I c `.`.p+_ 4  .z %.[.U c.Z@f J ~ f.c+(+`@7.`@9 2 V.A (+G f.8.w '@z 5+F r. #S+.#+#E.@#",
"##j K 5+5.$#%#&#r Z+f O+o+( a.,.= D.=.F.u T e U+{ o+Q L f R c 5.k ]+f.@ m I 5 w.}.*#~.=#' -#_ X o+> :.g.5.Q@;#r+m.>#J@/ u Y ,#'#",
")#!#[+9 }@,+~#!+!+{#= I a A.h 6 7 F.9 f %.@ 7 ]#} H V@o+| / `.4 J@^#J *@/ B /#W.s.(#_#3 W.u+,  .y U }.+ k :#>#O.G@<.(+u d.<#[#}#",
"9@a 8@{.Y@g+< |#1#- h D.J N./.( _.a s+/ =.-.2#s.@ @ 2 =#~ @ 3#.@S i+* 4 4#2.!+f.d+n+5#h.4 ~.#.f F.M K@6#x.7#8#[+9#*@p+3.0#a#b#a#",
"!#c#d#e##.o@^ f#h.m+` ^ L.M z ( Q g $.m.g#h#m.u+F.X F.A i#1 Q j#C 4.@.}.[ k#< u W < F.c+| y l#p.`.| - c Q [.C@!.@.m#n#o#<.p#q#v+",
"V.L+r#3 ^ s#5 ( ).b@k @ S.k G B h z h@| I+S y N y c+1 @ c+(+S B.t#f.y E.;+b u#%#o+( v#t+w#D f h.%.D =.O+#+V.`@t+x##.y#z#w $+(+1 ",
"&+w | | A#3.B#(+z F.r+c+: b@L._ ;.v C#R.g.W %.D#M a I+i+I E#).4 Y w.W.D.F#8.2 8@= G#- w.H#].I#x+^ J#9 w P+K#J L#*+U.!@5+T+g.M#@@",
"t+> %.q %@/ w#F.^+k M E.@ p N#x.7 O#3 X A ( P#= N f Q#P+!.h M#B#q f.c+R#a }.V 0+Q#5 4 S.H Q 8.N.4 I o+M s+.@N w ~ Q .@>@S#V@/ J+",
"=.n+G S.q.U u+ .w / 9+  !+o+4 3.^.,.#.@+Q > 6#T#l.m+e R W o+5.4 a [.&+3 T 1.x+2 4@o+u c.S a+G f.A %.r+E D@Q F > : L+U#V#e s.a+| ",
"v#w.X : w @ Q W#b@D L.| Z.W.q w R ^ L.`.X#).j#f.3.S.a@[.L+c M =._.7.Y#h.V@V.v N :.h ( H ~+: e @ L+V.b +.c@Z#`#X { %.( '+I+h  $.$",
"1.h M _.a w.: b@X x+4 w.w#^+E.= :.`.q = 4 L.S.7+H w.O+t+{ +$`.' F.M @$4 u ^ < t+A @ { h H w g - ) #$_ 1 u@q E ~+f+w }.p.u N >+w.",
"E.K#i+2+c.a e P@u 4 #.m $$u { c %$c+j#q.P+X#`.f : f.Y+s+5.9+(+( h.x+S =.F.{ _.)@&$L.{ v o+F./ F.5.J@9+T#r++#Y+*$=$D._.t+o+G f $ ",
"5.p.7.*+| e -$g ;$X+! e ^ L.X+w#<.V#( h@>$@ S+; 5.w K s.U.m m.~ g ,$G s+D o+*.(+K D A f c 2+( h q.x+W h K w.D Q#= 6 e#7.k#$+@+4 ",
"+ 6 '$; m.q.k j e.%.!+>$!+i+T+J a.@ ] A.#.V@S =.I+)$!$c.O+n.4 A.;+x@~$7 p.0.&@J#M 4..@] L.) g M Q f.M =.L.a.s.5 x+!.r.( #+{$]$o@",
"W : 2.^$0#9+/$;.q./ o+k w S.a.U g+/ R.g s.}.s.B+I '$h.) t+D@o+1 c+2+S#!$5+U ($_$:$v <$u b@`.F.u M#`.}.`.f Y H ;.4.&@h ] { u = e+",
"L.J v a h.y = | x.`.x b@e 3.k#M (+m.4 / /.4 %.S.;.&+c.2 X { %.].N q s@[$E.D@K.0#U#}$Y+H+~ s.|$1$2 @ { 2$c+3${ N.#+: ; , | a m ( ",
"a B.z + l w m.[.H A T#c+k#w t+a.M A.@ f =#c.g#M 3.6 c I D ~+D.U I+X k !$ .D A p.&+'$u+5 F.`@4$5$'.!+s+; ( a o.z 7 /.#.2+e =.|.I+",
"!.= - { 2 p.- z R J S.m.S Q 6$c+#.B+' F.E e : ] o+E.Q G S 8.K.7$F.d.h L.I 4 { v R.S h.I+F 8$K B.a 9$0$S.r+<.f *.f+S .@-#U }._ / ",
"b@z .@..A.S { o+@ P@a$; o@A ^ v 3.k#b$c$b+@ A.o.d$!+m.}.@ S+E.S x+e$t+ .R 2 5 5+>$f$F.@ D g$5.>+( a.2+T+: ]+S.F F.8.8.0+v r+a I+",
"%.z %.Q / {.G @ 5 L.1.f.5.h k N o+r#h$i$m.K@_@%.g.u ]+V@j$4 7+^ F.{ ;+U.p.W ^ , T@k$.$c f.B.$ J S@~ R@S G / /.v.9 K M 5.G o+m+l$",
"^ P m$J.}.L+C+J@N b@f.+ q < S 3.r.n$c$o$G J }.o+Q = =.%+1.f # p$f #.q$V@Q o.o+a.s.N `.f., r$A # B#M *+Q+v 2+s$m.f.2 %+4@M E.=.- ",
"..O+8.P+H W 5.p.O#I U ) 5 a$(+7 y D.e ] l K | k (+| _.e#s.&+f I+:.S+x+i+b R y s+J@v.1$t$A+s$i.*.u$=+Q p.v$c+I A L.%+5 4 (+> I J ",
"f I w.3._.Q S = M f h D X+P :.X+{#&+5+&@p+V#9 q y 3.c.w.w$y N u N x$o+T+a.5.( f.y$,.( z$A$c+W r+B$C$|$5+L.=.K D$B p.=.v o.L.@ ;+",
"S+p.i.[ 7.b E$=#P ;.f.  R F I 1.u | R.!+w.H  .f.7$r$M = F$S.L.y [.J@T+p.f.- !+8 G$H$) + I$o@y J._.% W A x.F 4 h (#/ 4 4 ^.D + c ",
"L.4 {$J$1.8.;.s+4#K$z P+I 4$@ A g N.L$;@- P+2+r.5 L.U.w.( c f.f n 7 S+}.h.W ; !.M$N$!+~ O$M#A Q+U `.9+L.f K f+H S W i+F.g &+o+c ",
"#.c ].1.1$F P$v.~$X c i.f m.2#J 3.(+x+!.F.| K D.) J.f+E.{ Q$u I+A t+5+U.T+@ ~.R$S$o@r@9+T$F.N !.M L.U$I+O++ }.D J+b@S : 1 c+F.J@",
"5 F.V$$ 1$t.a 7 j#=.w N ].B#4 P++ f.-.G D@t+o+U %.>$y W$S#J+S | U.K -.G f.N.E.W.S$`.H O+1 k 8.e 9+X$j#G I+Y$;.a ;.B {$J@D.q : h.",
"W X Z$=.u N _.!+{ `${ + - M B#N l.@ F.F$h %...p+U $.S I+%.O+S G I %+7$ %b@`$~+f .%H ; v f.{ : ~ s.+ 4 N [.+%- _.c+@ w L.+ I+4#M+",
"{.a.9 @%7 c+e##%y g >#= g (+M f.-.m.m.( - -.^ N.&+$%#+%% .F / D _.r.>.C.N.`@*@=.D _ S.%.D D > f a J@o+= (+)@b ++ ./ B.I+}.k { r+",
"t+&%J.B ;.Y#)$*%J#R I 8 !+s.^.3.< 4 b@f U.K u #+g+_.=%E F. .~./ w. .g D.~ 6.`.Q+K ; c+y 5 F$-%Q g S._.u { F.V.p.J.0@f.`#e#q.5.}.",
"U#;%++R E.R / H+Q 5.Q ) ( m.] w / c.( c+| >%c+e 8.c.L+,%> '%h { W.)%!%h.i+;+c+]+U f.c G E.f J P@p+u S$c.,.t.h.I D@P P#~%b {%Z ]%",
"L.F.#.^%P@*@%.m./%( f #+5+F#I+U+%.R$R.(+;+P+I+m.I+(%7._%:%a.J.@ Q b F ^ 2+v b R 4# .w.] G P+5+<%2#).: w+7@++> w.@ :.; A V.D R ~ ",
"4 -.]+h@| `+++= e W.1.^+[%;+^.g e (+c j#L.N.+ ~+g S h.L+D.E.f c I u F 5 h+K@F.@.: @ g+O+5 }%t@j x.- P w.w | 1.p+h.b@J@;+|%h 4 R.",
">#1%2%3%H+<#+%K 4%&+f @ _ E.-.k#s+I+U.N ] v.o+@ : #+!.]+>.[.`.y F.L.; / p+U.r+k @ L.J@w.o.@ $+Y+J.=.5 I+>#=+_ o+_ : 3.J#++5 y U.",
"5%5+6%e.7%8%9%z o@f %.Q f.f @ f.%$a.%%:.3.U / 4 ~ f.o+7.S ..7 F.o@8.E = c.e+z > u+2+X z h _ ;.t+4 m P@}./ S.0%) h 7 b+0@G 5 x+P ",
"a%[.b%>##+g.z U < _ f.5.@%=.W (+F N c.a.Q f+N c++ x+0.M+z g.I+M ).c%m.: 5.2+^ P@^ ;+d@-.Q#P@p.c.c.L.t+E.=.E.g >#K b@/ h U n y _ ",
"<.>@d%$+`@*.R @+b@~ e%_ r$4.U+ .9$K@< w.9%f%f+g%h%Q#K x.m.n.1.L.i%j%u _ k%] - p+@ Q+/ E.l%D@F./ / O$m%=.!+] =#-.c.3 u + I+y K+( ",
"].e#F.@@(+D.7 v N r$( A n%h.@ ~ a o.!.:.l _+o%p%q%b ~ 4 A+U ,@r+9 e H+1.Z+L+D#K@&+D s+U.r%U.s%1.W P+K@k + 9 K / /./ 0+a F.!.t%+#",
"c.N B x.e+~.S 2 T@1.J 9+B.).J U.M J@2.b X+>+@@u%%.= v%_.f.h w%8.:.X [.H s+A.x%w.: g t+f = r.h n+^.- @ I+F.m.@ 0+^ 3.U `$:.N y%Y ",
"] D z%7 / w b@D L.^.^ [.A%~ N f R J#k c.F.f.N :.B%L x+E.2#h N W R.X 4 < N L.t+U h.9+1+L.o+3.X w.I `@/ ~ ~.: q.=.P @ 4 _.t+3.< O+",
"^ L.{ F b+(+P+T@W ) c+&#u$( A A.o+B#D@c.E@'.~ C%@ D%p.;.m.4 R+g+S#n V.!+`.] A S+=.2 U@W *@c+X %.E%- s#E.H 2 4 o@U.%.a.`@g 2.1$F%",
"s+H.{$Q (+5 ( < ~+G%C%H%v K@u %.E.+ p+5 4 I%= J%N h K@< o@> U v c A%v r+].W.{ =.b@1 n%w#~ b@b ;@@ q.=#K%L%f.G e%@ _.[.h.M%w q /.",
"s.< Y+v.S y A.K M w h v h.s.(+J.7 / x.D@f.( .@Q N%O%o+u S z o+p.).h : f.]+y S h G Q / q.[+)+q$P%: e q ~+S.M 4 4.c+h y -.g K L./.",
"J@*@2 m.V.5.I+Q f f.: h L.: i+V.}.4 t+{ ) S.(+A   y =#, ~ / 5.b@) r$*@a ;.4+l r$U.4 X =.K.Q%W - e + _.F.R%f P.X+{ o+K H.R$W _ Q%",
"2.S%y N u 9 t+c.N m.f.F.V.h m.V.^ r+:.|.1.h m ( u Y M#~+f a T+;.b@T%U%r+@#U.F.c.G@D@E.^ ^.V%V.B#r+2 4.l G Q#W%Z O g.=.s+X%(+R@k ",
"@ G.P${ - f+I > W Y%]+z 4 D Q _+&+a @@{ #.x.w : F.) S+V.L.E.r+U#{ P%p+S#V@O+&+Z%x.#+) (+o@5.c t#= !$w+o+  K.@ !.*.[$;.f.; e#0.K ",
"I m.L.2 I.] K m.N@m.<.@ ^ K %.8.E@W g 2 J$8.m D@!%t+~ &+) 6 > 5 P+@ 2 ] = { = c 1 x%K - 8.G P J@#.=#`%] 0+[@>+p.$@5 v o@f.p+o+p+",
"W *.t#_@ &H.;. .n @$h@U K.f.-.c ^ N I y ;+:.w.| 9.~ A.b@C.U+L#2+8.-.9 .&h g+q o.( V$*.c+:.*@Q - / 3.v #@!., g U.+++&T+%+m k$8. @"};
